<svg width="160" height="84" viewBox="0 0 160 84" fill="none" xmlns="http://www.w3.org/2000/svg">
<g clip-path="url(#clip0)">
<path d="M123.73 83.4059L88.5318 68.3287V0.593994L123.73 15.6712V83.4059Z" fill="white"/>
<path d="M123.718 84.0012C123.63 84.0189 123.54 84.0189 123.453 84.0012L88.2672 68.8408C88.1568 68.7926 88.0636 68.7154 87.9987 68.6185C87.9339 68.5215 87.9002 68.4089 87.9017 68.2943V0.57146C87.9004 0.471092 87.926 0.372052 87.9763 0.283567C88.0266 0.195082 88.0998 0.12005 88.1891 0.065472C88.2785 0.0108935 88.3811 -0.0214578 88.4873 -0.0285463C88.5935 -0.0356348 88.6998 -0.0172307 88.7965 0.024935L123.982 15.1378C124.093 15.186 124.186 15.2632 124.251 15.3601C124.316 15.4571 124.349 15.5697 124.348 15.6843V83.4071C124.348 83.5647 124.281 83.7158 124.163 83.8272C124.045 83.9386 123.885 84.0012 123.718 84.0012ZM89.1493 67.9497L123.088 82.4923V16.0645L89.1493 1.52196V67.9497Z" fill="#008ECA"/>
<path d="M120.618 78.2258L91.632 65.81V5.76245L120.618 18.1902V78.2258Z" fill="white"/>
<path d="M120.618 78.8318C120.53 78.8494 120.44 78.8494 120.353 78.8318L91.3674 66.4159C91.257 66.3678 91.1638 66.2906 91.0989 66.1936C91.0341 66.0966 91.0004 65.984 91.0019 65.8694V5.77434C91.0006 5.67397 91.0262 5.57493 91.0765 5.48645C91.1268 5.39796 91.2 5.32291 91.2893 5.26833C91.3787 5.21376 91.4813 5.18142 91.5875 5.17433C91.6937 5.16725 91.8 5.18565 91.8967 5.22782L120.882 17.6437C120.993 17.6918 121.086 17.769 121.151 17.866C121.215 17.9629 121.249 18.0755 121.248 18.1902V78.2377C121.248 78.3953 121.181 78.5464 121.063 78.6578C120.945 78.7692 120.785 78.8318 120.618 78.8318ZM92.2495 65.4298L119.975 77.311V18.5704L92.2495 6.6892V65.4298Z" fill="#008ECA"/>
<path d="M44.5747 0.593994H0.63012V68.3168H44.5747V0.593994Z" fill="white"/>
<path d="M44.5747 68.9216H0.630124C0.463006 68.9216 0.302722 68.859 0.184552 68.7476C0.0663816 68.6362 4.29153e-06 68.4851 4.29153e-06 68.3276V0.604802C4.29153e-06 0.447247 0.0663816 0.296136 0.184552 0.184729C0.302722 0.0733209 0.463006 0.0107422 0.630124 0.0107422H44.5747C44.7418 0.0107422 44.9021 0.0733209 45.0202 0.184729C45.1384 0.296136 45.2048 0.447247 45.2048 0.604802V68.3276C45.2048 68.4851 45.1384 68.6362 45.0202 68.7476C44.9021 68.859 44.7418 68.9216 44.5747 68.9216ZM1.26024 67.7335H43.9445V1.19886H1.23503V67.7335H1.26024Z" fill="#008ECA"/>
<path d="M88.5192 0.593994H44.5747V68.3168H88.5192V0.593994Z" fill="white"/>
<path d="M88.5192 68.9216H44.5747C44.4076 68.9216 44.2473 68.859 44.1291 68.7476C44.0109 68.6362 43.9445 68.4851 43.9445 68.3276V0.604802C43.9445 0.447247 44.0109 0.296136 44.1291 0.184729C44.2473 0.0733209 44.4076 0.0107422 44.5747 0.0107422H88.5192C88.6863 0.0107422 88.8466 0.0733209 88.9648 0.184729C89.0829 0.296136 89.1493 0.447247 89.1493 0.604802V68.3276C89.1493 68.4851 89.0829 68.6362 88.9648 68.7476C88.8466 68.859 88.6863 68.9216 88.5192 68.9216ZM45.2048 67.7335H87.8891V1.19886H45.2048V67.7335Z" fill="#008ECA"/>
<path d="M40.6931 4.43164H4.49906V64.4792H40.6931V4.43164Z" fill="white"/>
<path d="M40.7057 65.0852H4.49905C4.33194 65.0852 4.17167 65.0226 4.0535 64.9112C3.93533 64.7998 3.86893 64.6487 3.86893 64.4912V4.44367C3.86893 4.28611 3.93533 4.135 4.0535 4.0236C4.17167 3.91219 4.33194 3.84961 4.49905 3.84961H40.6931C40.8602 3.84961 41.0205 3.91219 41.1387 4.0236C41.2569 4.135 41.3232 4.28611 41.3232 4.44367V64.4912C41.3233 64.6467 41.2586 64.796 41.1432 64.9071C41.0277 65.0182 40.8707 65.0821 40.7057 65.0852ZM5.14179 63.8971H40.0756V5.03773H5.12917V63.8971H5.14179Z" fill="#008ECA"/>
<path d="M84.6503 4.43164H48.4562V64.4792H84.6503V4.43164Z" fill="white"/>
<path d="M84.6503 65.0852H48.4562C48.2891 65.0852 48.1288 65.0226 48.0106 64.9112C47.8925 64.7998 47.8261 64.6487 47.8261 64.4912V4.44367C47.8261 4.28611 47.8925 4.135 48.0106 4.0236C48.1288 3.91219 48.2891 3.84961 48.4562 3.84961H84.6503C84.8174 3.84961 84.9777 3.91219 85.0958 4.0236C85.214 4.135 85.2804 4.28611 85.2804 4.44367V64.4912C85.2804 64.6487 85.214 64.7998 85.0958 64.9112C84.9777 65.0226 84.8174 65.0852 84.6503 65.0852ZM49.0863 63.8971H84.0202V5.03773H49.1241V63.8971H49.0863Z" fill="#008ECA"/>
<path d="M159.382 15.6714H123.73V83.3942H159.382V15.6714Z" fill="white"/>
<path d="M159.37 84H123.718C123.551 84 123.39 83.9374 123.272 83.826C123.154 83.7146 123.088 83.5635 123.088 83.406V15.6832C123.088 15.5256 123.154 15.3745 123.272 15.2631C123.39 15.1517 123.551 15.0891 123.718 15.0891H159.37C159.537 15.0891 159.697 15.1517 159.815 15.2631C159.934 15.3745 160 15.5256 160 15.6832V83.406C160 83.5635 159.934 83.7146 159.815 83.826C159.697 83.9374 159.537 84 159.37 84ZM124.348 82.8119H158.765V16.2772H124.348V82.8119Z" fill="#008ECA"/>
<path d="M156.232 19.5208H126.868V79.5683H156.232V19.5208Z" fill="white"/>
<path d="M156.244 80.1624H126.881C126.714 80.1624 126.554 80.0998 126.435 79.9884C126.317 79.877 126.251 79.7259 126.251 79.5683V19.5208C126.251 19.3633 126.317 19.2122 126.435 19.1007C126.554 18.9893 126.714 18.9268 126.881 18.9268H156.244C156.412 18.9268 156.572 18.9893 156.69 19.1007C156.808 19.2122 156.875 19.3633 156.875 19.5208V79.5327C156.88 79.6137 156.867 79.6947 156.838 79.771C156.809 79.8472 156.763 79.917 156.704 79.976C156.645 80.035 156.574 80.082 156.495 80.114C156.416 80.1461 156.331 80.1625 156.244 80.1624ZM127.511 78.9743H155.614V20.1268H127.511V78.9862V78.9743Z" fill="#008ECA"/>
</g>
<defs>
<clipPath id="clip0">
<rect width="160" height="84" fill="white"/>
</clipPath>
</defs>
</svg>
