<svg width="160" height="84" viewBox="0 0 160 84" fill="none" xmlns="http://www.w3.org/2000/svg">
<path d="M44.7393 0.503662H0.631912V57.9137H44.7393V0.503662Z" fill="white"/>
<path d="M88.8468 0.503662H44.7393V57.9137H88.8468V0.503662Z" fill="white"/>
<path d="M40.8215 3.72656H4.54976V54.5899H40.8215V3.72656Z" fill="white"/>
<path d="M84.9289 3.72656H48.6572V54.5899H84.9289V3.72656Z" fill="white"/>
<path d="M124.107 70.7051L88.8468 57.9137V0.503662L124.107 13.295V70.7051Z" fill="white"/>
<path d="M120.948 66.2733L91.8799 55.7985V4.83447L120.948 15.41V66.2733Z" fill="white"/>
<path d="M159.368 83.4964L124.107 70.705V13.2949L159.368 26.0863V83.4964Z" fill="white"/>
<path d="M156.335 79.0648L127.141 68.59V17.626L156.335 28.2015V79.0648Z" fill="white"/>
<path d="M4.54976 55.1942H40.8215C41.2006 55.1942 41.4534 54.9928 41.4534 54.6906V3.72662C41.4534 3.42446 41.2006 3.22302 40.8215 3.22302H4.54976C4.17062 3.22302 3.91785 3.42446 3.91785 3.72662V54.5899C3.91785 54.8921 4.17062 55.1942 4.54976 55.1942ZM5.18167 4.23022H40.1896V54.0863H5.18167V4.23022ZM84.9289 3.22302H48.6572C48.278 3.22302 48.0253 3.42446 48.0253 3.72662V54.5899C48.0253 54.8921 48.278 55.0935 48.6572 55.0935H84.9289C85.3081 55.0935 85.5608 54.8921 85.5608 54.5899V3.72662C85.5608 3.52518 85.1817 3.22302 84.9289 3.22302ZM84.297 54.187H49.2891V4.23022H84.297V54.187ZM121.201 14.9065L92.1327 4.33094C92.0063 4.33094 92.0063 4.33094 91.8799 4.33094C91.5008 4.33094 91.248 4.53237 91.248 4.83453V55.7986C91.248 56 91.3744 56.2014 91.6272 56.3022L120.695 66.8777C120.821 66.8777 120.821 66.8777 120.948 66.8777C121.327 66.8777 121.58 66.6763 121.58 66.3741V15.4101C121.58 15.2086 121.453 15.0072 121.201 14.9065ZM120.316 65.5683L92.5118 55.4964V5.64029L120.316 15.7122V65.5683ZM159.621 25.5827L124.36 12.7914C124.234 12.7914 124.234 12.7914 124.107 12.7914L89.2259 0.100719C89.0995 0.100719 88.9731 0 88.7204 0H44.7393H0.631912C0.252765 0 0 0.201439 0 0.503597V57.9137C0 58.2158 0.252765 58.4173 0.631912 58.4173H44.7393H88.4676L123.855 71.2086H123.981L159.115 84C159.242 84 159.242 84 159.368 84C159.747 84 160 83.6978 160 83.4964V26.0863C160 25.8849 159.874 25.6835 159.621 25.5827ZM44.1074 57.4101H1.26382V1.00719H44.1074V57.4101ZM45.3713 57.4101V1.00719H88.2149V57.4101H45.3713ZM89.4787 1.30935L123.476 13.5971V69.8993L89.4787 57.6115V1.30935ZM158.736 82.6907L124.739 70.4029V14.1007L158.736 26.3885V82.6907ZM126.888 69.0935L155.956 79.6691C156.082 79.6691 156.082 79.6691 156.209 79.6691C156.588 79.6691 156.84 79.4676 156.84 79.1655V28.2014C156.84 28 156.714 27.7986 156.461 27.6978L127.393 17.1223C127.267 17.0216 127.014 17.0216 126.761 17.1223C126.635 17.223 126.509 17.4245 126.509 17.5252V68.4892C126.509 68.7914 126.761 68.9928 126.888 69.0935ZM127.899 18.4317L155.703 28.5036V78.259L127.899 68.187V18.4317Z" fill="#008ECA"/>
</svg>
