<svg width="160" height="83" viewBox="0 0 160 83" fill="none" xmlns="http://www.w3.org/2000/svg">
<path d="M57.386 0.586914H0.810537V67.5035H57.386V0.586914Z" fill="white"/>
<path d="M57.386 68.0905H0.810537C0.324215 68.0905 0 67.8557 0 67.5035V0.586987C0 0.234795 0.324215 0 0.810537 0H57.386C57.8723 0 58.1966 0.234795 58.1966 0.586987V67.5035C58.1966 67.8557 57.7102 68.0905 57.386 68.0905ZM1.62107 66.9166H56.5755V1.17397H1.62107V66.9166Z" fill="#CCCCCC"/>
<path d="M113.962 0.586914H57.386V67.5035H113.962V0.586914Z" fill="white"/>
<path d="M113.799 68.0905H57.386C56.8997 68.0905 56.5755 67.8557 56.5755 67.5035V0.586987C56.5755 0.234795 56.8997 0 57.386 0H113.799C114.286 0 114.61 0.234795 114.61 0.586987V67.5035C114.61 67.8557 114.286 68.0905 113.799 68.0905ZM58.0344 66.9166H112.989V1.17397H58.1966L58.0344 66.9166Z" fill="#CCCCCC"/>
<path d="M52.3607 4.34375H5.83587V63.6295H52.3607V4.34375Z" fill="white"/>
<path d="M52.3607 64.3337H5.83587C5.34954 64.3337 5.02533 64.0989 5.02533 63.7467V4.34358C5.02533 3.99139 5.34954 3.75659 5.83587 3.75659H52.3607C52.847 3.75659 53.1712 3.99139 53.1712 4.34358V63.7467C53.1712 64.0989 52.847 64.3337 52.3607 64.3337ZM6.6464 63.1597H51.5502V4.93057H6.6464V63.1597Z" fill="#CCCCCC"/>
<path d="M108.936 4.34375H62.4114V63.6295H108.936V4.34375Z" fill="white"/>
<path d="M108.936 64.3337H62.4114C61.925 64.3337 61.6008 64.0989 61.6008 63.7467V4.34358C61.6008 3.99139 61.925 3.75659 62.4114 3.75659H109.098C109.585 3.75659 109.909 3.99139 109.909 4.34358V63.7467C109.747 64.0989 109.422 64.3337 108.936 64.3337ZM63.2219 63.1597H108.126V4.93057H63.2219V63.1597Z" fill="#CCCCCC"/>
<path d="M46.0385 82.4129L0.810537 67.5035V0.586914L46.0385 15.4964V82.4129Z" fill="white"/>
<path d="M46.0385 83C45.8764 83 45.8764 83 45.7143 83L0.486322 68.0905C0.162107 67.9731 0 67.7383 0 67.5035V0.586987C0 0.352192 0.324215 0 0.810537 0C0.972644 0 0.972644 0 1.13475 0L46.3627 14.9095C46.6869 15.0269 46.849 15.2617 46.849 15.4965V82.413C46.849 82.7652 46.5248 83 46.0385 83ZM1.62107 67.1514L45.228 81.4738V15.8487L1.62107 1.52617V67.1514Z" fill="#CCCCCC"/>
<path d="M42.1479 77.2475L4.86322 65.0381V5.63501L42.1479 17.9617V77.2475Z" fill="white"/>
<path d="M42.1479 77.8346C41.9858 77.8346 41.9858 77.8346 41.8237 77.8346L4.53901 65.6252C4.21479 65.5078 4.05268 65.273 4.05268 65.0382V5.75251C4.05268 5.40032 4.3769 5.16553 4.86322 5.16553C5.02533 5.16553 5.02533 5.16553 5.18744 5.16553L42.4721 17.3749C42.7964 17.4923 42.9585 17.7271 42.9585 17.9619V77.2476C42.9585 77.5998 42.4721 77.8346 42.1479 77.8346ZM5.67376 64.686L41.3374 76.4258V18.314L5.67376 6.5743V64.686Z" fill="#CCCCCC"/>
<path d="M159.189 82.4129L113.962 67.5035V0.586914L159.189 15.4964V82.4129Z" fill="white"/>
<path d="M159.189 83C159.027 83 159.027 83 158.865 83L113.637 68.0905C113.313 67.9731 113.151 67.7383 113.151 67.5035V0.586987C113.151 0.352192 113.475 0 113.962 0C114.124 0 114.124 0 114.286 0L159.514 14.9095C159.838 15.0269 160 15.2617 160 15.4965V82.413C160 82.7652 159.676 83 159.189 83ZM114.772 67.1514L158.379 81.4738V15.8487L114.772 1.52617V67.1514Z" fill="#CCCCCC"/>
<path d="M155.299 77.2475L117.852 65.0381V5.63501L155.299 17.9617V77.2475Z" fill="white"/>
<path d="M155.299 77.8346C155.137 77.8346 155.137 77.8346 154.975 77.8346L117.69 65.6252C117.366 65.5078 117.204 65.273 117.204 65.0382V5.75251C117.204 5.40032 117.528 5.16553 118.014 5.16553C118.176 5.16553 118.176 5.16553 118.338 5.16553L155.623 17.3749C155.947 17.4923 156.109 17.7271 156.109 17.9619V77.2476C156.109 77.5998 155.623 77.8346 155.299 77.8346ZM118.663 64.686L154.326 76.4258V18.314L118.663 6.5743V64.686Z" fill="#CCCCCC"/>
</svg>
