<svg width="158" height="84" viewBox="0 0 158 84" fill="blue" xmlns="http://www.w3.org/2000/svg">
<path d="M52.8704 0.724121H0.764038V83.2758H52.8704V0.724121Z" fill="white"/>
<path d="M52.8704 84H0.764023C0.305609 84 0 83.7103 0 83.2759V0.724138C0 0.289655 0.305609 0 0.764023 0H52.8704C53.3288 0 53.6344 0.289655 53.6344 0.724138V83.2759C53.6344 83.7103 53.3288 84 52.8704 84ZM1.52805 82.5517H52.1064V1.44828H1.52805V82.5517Z" fill="#CCCCCC"/>
<path d="M104.977 0.724121H52.8704V83.2758H104.977V0.724121Z" fill="white"/>
<path d="M104.977 84H52.8704C52.412 84 52.1064 83.7103 52.1064 83.2759V0.724138C52.1064 0.289655 52.412 0 52.8704 0H104.977C105.435 0 105.741 0.289655 105.741 0.724138V83.2759C105.741 83.7103 105.435 84 104.977 84ZM53.6344 82.5517H104.213V1.44828H53.6344V82.5517Z" fill="#CCCCCC"/>
<path d="M157.083 0.724121H104.977V83.2758H157.083V0.724121Z" fill="white"/>
<path d="M157.236 84H104.977C104.518 84 104.213 83.7103 104.213 83.2759V0.724138C104.213 0.289655 104.518 0 104.977 0H157.083C157.542 0 157.847 0.289655 157.847 0.724138V83.2759C158 83.7103 157.542 84 157.236 84ZM105.741 82.5517H156.319V1.44828H105.741V82.5517Z" fill="#CCCCCC"/>
<path d="M48.2862 5.35864H5.34814V78.4966H48.2862V5.35864Z" fill="white"/>
<path d="M48.2863 79.3656H5.34819C4.88978 79.3656 4.58417 79.0759 4.58417 78.6414V5.35866C4.58417 4.92418 4.88978 4.63452 5.34819 4.63452H48.2863C48.7447 4.63452 49.0503 4.92418 49.0503 5.35866V78.4966C49.0503 78.9311 48.7447 79.3656 48.2863 79.3656ZM6.11221 77.9173H47.5223V6.0828H6.11221V77.9173Z" fill="#CCCCCC"/>
<path d="M100.393 5.35864H57.4545V78.4966H100.393V5.35864Z" fill="white"/>
<path d="M100.393 79.3656H57.4546C56.9962 79.3656 56.6906 79.0759 56.6906 78.6414V5.35866C56.6906 4.92418 56.9962 4.63452 57.4546 4.63452H100.393C100.851 4.63452 101.157 4.92418 101.157 5.35866V78.4966C101.157 78.9311 100.851 79.3656 100.393 79.3656ZM58.2186 77.9173H99.6287V6.0828H58.2186V77.9173Z" fill="#CCCCCC"/>
<path d="M152.652 5.35864H109.714V78.4966H152.652V5.35864Z" fill="white"/>
<path d="M152.499 79.3656H109.714C109.255 79.3656 108.95 79.0759 108.95 78.6414V5.35866C108.95 4.92418 109.255 4.63452 109.714 4.63452H152.652C153.11 4.63452 153.416 4.92418 153.416 5.35866V78.4966C153.263 78.9311 152.957 79.3656 152.499 79.3656ZM110.478 77.9173H151.888V6.0828H110.478V77.9173Z" fill="#CCCCCC"/>
</svg>
